HIERARCHY
ROOT Bip01
{
  OFFSET 15.7446 31.5610 57.6474
  CHANNELS 6 Xposition Yposition Zposition Zrotation Xrotation Yrotation
  JOINT Bip01_Footsteps
  {
    OFFSET 53.2821 -0.0001 8.1953
    CHANNELS 6 Xposition Yposition Zposition Zrotation Xrotation Yrotation
    End Site
    {
      OFFSET 0 0 0
    }
  }
  JOINT b_Hips
  {
    OFFSET 0.0000 0.0000 0.0000
    CHANNELS 6 Xposition Yposition Zposition Zrotation Xrotation Yrotation
    JOINT b_Spine
    {
      OFFSET 10.4409 -1.6220 0.0000
      CHANNELS 6 Xposition Yposition Zposition Zrotation Xrotation Yrotation
      JOINT b_Spine1
      {
        OFFSET 8.8514 -0.0090 0.0000
        CHANNELS 6 Xposition Yposition Zposition Zrotation Xrotation Yrotation
        JOINT b_Spine2
        {
          OFFSET 11.3035 -0.0088 -0.0000
          CHANNELS 6 Xposition Yposition Zposition Zrotation Xrotation Yrotation
          JOINT b_Spine3
          {
            OFFSET 11.0297 -0.0113 0.0000
            CHANNELS 6 Xposition Yposition Zposition Zrotation Xrotation Yrotation
            JOINT b__Neck
            {
              OFFSET 14.9480 -3.1935 0.0000
              CHANNELS 6 Xposition Yposition Zposition Zrotation Xrotation Yrotation
              JOINT b__Neck1
              {
                OFFSET 5.4958 -0.0043 -0.0000
                CHANNELS 6 Xposition Yposition Zposition Zrotation Xrotation Yrotation
                JOINT b__Neck2
                {
                  OFFSET 5.5266 -0.0049 0.0000
                  CHANNELS 6 Xposition Yposition Zposition Zrotation Xrotation Yrotation
                  JOINT b_Head
                  {
                    OFFSET 6.1093 0.0000 0.0000
                    CHANNELS 6 Xposition Yposition Zposition Zrotation Xrotation Yrotation
                    JOINT Bip01_HeadNub
                    {
                      OFFSET 28.6688 -0.0000 0.0000
                      CHANNELS 6 Xposition Yposition Zposition Zrotation Xrotation Yrotation
                      End Site
                      {
                        OFFSET 0 0 0
                      }
                    }
                    JOINT Dog_Jaw
                    {
                      OFFSET 0.6075 2.3575 -0.0000
                      CHANNELS 6 Xposition Yposition Zposition Zrotation Xrotation Yrotation
                      End Site
                      {
                        OFFSET 0 0 0
                      }
                    }
                  }
                }
              }
            }
            JOINT b_LeftClav
            {
              OFFSET 10.4683 2.1257 3.5190
              CHANNELS 6 Xposition Yposition Zposition Zrotation Xrotation Yrotation
              JOINT b_LeftArm
              {
                OFFSET 7.3453 0.0000 0.0000
                CHANNELS 6 Xposition Yposition Zposition Zrotation Xrotation Yrotation
                JOINT b_LeftForeArm
                {
                  OFFSET 23.3863 -0.0000 0.0000
                  CHANNELS 6 Xposition Yposition Zposition Zrotation Xrotation Yrotation
                  JOINT b_LeftHand
                  {
                    OFFSET 21.5040 -0.0000 0.0000
                    CHANNELS 6 Xposition Yposition Zposition Zrotation Xrotation Yrotation
                    JOINT b__LeftFinger
                    {
                      OFFSET 1.5926 6.2126 -0.0138
                      CHANNELS 6 Xposition Yposition Zposition Zrotation Xrotation Yrotation
                      JOINT Bip01_L_Finger0Nub
                      {
                        OFFSET 23.3657 0.0000 0.0000
                        CHANNELS 6 Xposition Yposition Zposition Zrotation Xrotation Yrotation
                        End Site
                        {
                          OFFSET 0 0 0
                        }
                      }
                    }
                  }
                }
                JOINT Dog_LeftArmor002
                {
                  OFFSET 4.2035 4.4457 12.7354
                  CHANNELS 6 Xposition Yposition Zposition Zrotation Xrotation Yrotation
                  End Site
                  {
                    OFFSET 0 0 0
                  }
                }
              }
            }
            JOINT b_RightClav
            {
              OFFSET 10.4683 2.1257 -3.5189
              CHANNELS 6 Xposition Yposition Zposition Zrotation Xrotation Yrotation
              JOINT b_RightArm
              {
                OFFSET 7.3453 0.0000 -0.0000
                CHANNELS 6 Xposition Yposition Zposition Zrotation Xrotation Yrotation
                JOINT b_RightForeArm
                {
                  OFFSET 23.3863 0.0000 -0.0000
                  CHANNELS 6 Xposition Yposition Zposition Zrotation Xrotation Yrotation
                  JOINT b_RightHand
                  {
                    OFFSET 21.5040 0.0000 0.0000
                    CHANNELS 6 Xposition Yposition Zposition Zrotation Xrotation Yrotation
                    JOINT b_RightFinger
                    {
                      OFFSET 1.5926 6.2126 0.0138
                      CHANNELS 6 Xposition Yposition Zposition Zrotation Xrotation Yrotation
                      JOINT Bip01_R_Finger0Nub
                      {
                        OFFSET 23.3657 -0.0000 0.0000
                        CHANNELS 6 Xposition Yposition Zposition Zrotation Xrotation Yrotation
                        End Site
                        {
                          OFFSET 0 0 0
                        }
                      }
                    }
                  }
                }
                JOINT Dog_RightArmor002
                {
                  OFFSET 4.2034 4.4457 -12.7351
                  CHANNELS 6 Xposition Yposition Zposition Zrotation Xrotation Yrotation
                  End Site
                  {
                    OFFSET 0 0 0
                  }
                }
              }
            }
          }
        }
      }
    }
    JOINT b_Tail001
    {
      OFFSET -4.7889 3.8598 0.8608
      CHANNELS 6 Xposition Yposition Zposition Zrotation Xrotation Yrotation
      JOINT b_Tail002
      {
        OFFSET 5.0654 0.0000 -0.0000
        CHANNELS 6 Xposition Yposition Zposition Zrotation Xrotation Yrotation
        JOINT b_Tail003
        {
          OFFSET 4.9750 0.0000 -0.0000
          CHANNELS 6 Xposition Yposition Zposition Zrotation Xrotation Yrotation
          JOINT b_Tail004
          {
            OFFSET 4.7171 -0.0000 0.0000
            CHANNELS 6 Xposition Yposition Zposition Zrotation Xrotation Yrotation
            JOINT b_Tail005
            {
              OFFSET 9.7173 -0.0000 -0.0001
              CHANNELS 6 Xposition Yposition Zposition Zrotation Xrotation Yrotation
              JOINT b_Tail006
              {
                OFFSET 8.2617 0.0001 0.0000
                CHANNELS 6 Xposition Yposition Zposition Zrotation Xrotation Yrotation
                JOINT b_Tail007
                {
                  OFFSET 9.7599 -0.0001 0.0000
                  CHANNELS 6 Xposition Yposition Zposition Zrotation Xrotation Yrotation
                  JOINT b_Tail008
                  {
                    OFFSET 11.1530 0.0000 -0.0000
                    CHANNELS 6 Xposition Yposition Zposition Zrotation Xrotation Yrotation
                    JOINT b_Tail009
                    {
                      OFFSET 10.3039 0.0000 0.0000
                      CHANNELS 6 Xposition Yposition Zposition Zrotation Xrotation Yrotation
                      End Site
                      {
                        OFFSET 0 0 0
                      }
                    }
                  }
                }
              }
            }
          }
        }
      }
    }
    JOINT Dog_LeftTail001
    {
      OFFSET -11.9878 -1.7857 10.1900
      CHANNELS 6 Xposition Yposition Zposition Zrotation Xrotation Yrotation
      JOINT Dog_LeftTail002
      {
        OFFSET 8.4424 0.0000 0.0000
        CHANNELS 6 Xposition Yposition Zposition Zrotation Xrotation Yrotation
        JOINT Dog_LeftTail003
        {
          OFFSET 9.9501 0.0000 -0.0000
          CHANNELS 6 Xposition Yposition Zposition Zrotation Xrotation Yrotation
          JOINT Dog_LeftTail004
          {
            OFFSET 9.4342 0.0000 -0.0000
            CHANNELS 6 Xposition Yposition Zposition Zrotation Xrotation Yrotation
            JOINT Dog_LeftTail005
            {
              OFFSET 9.7173 0.0001 0.0001
              CHANNELS 6 Xposition Yposition Zposition Zrotation Xrotation Yrotation
              JOINT Dog_LeftTail006
              {
                OFFSET 8.2618 -0.0000 -0.0000
                CHANNELS 6 Xposition Yposition Zposition Zrotation Xrotation Yrotation
                JOINT Dog_LeftTail007
                {
                  OFFSET 9.7599 0.0000 0.0000
                  CHANNELS 6 Xposition Yposition Zposition Zrotation Xrotation Yrotation
                  JOINT Dog_LeftTail008
                  {
                    OFFSET 11.1529 -0.0001 -0.0001
                    CHANNELS 6 Xposition Yposition Zposition Zrotation Xrotation Yrotation
                    JOINT Dog_LeftTail009
                    {
                      OFFSET 10.3039 -0.0000 0.0000
                      CHANNELS 6 Xposition Yposition Zposition Zrotation Xrotation Yrotation
                      End Site
                      {
                        OFFSET 0 0 0
                      }
                    }
                  }
                }
              }
            }
          }
        }
      }
    }
    JOINT b_LeftLegUpper
    {
      OFFSET -0.0000 0.0000 9.9422
      CHANNELS 6 Xposition Yposition Zposition Zrotation Xrotation Yrotation
      JOINT b_LeftLeg
      {
        OFFSET 25.9795 0.0000 0.0000
        CHANNELS 6 Xposition Yposition Zposition Zrotation Xrotation Yrotation
        JOINT b_LeftLeg1
        {
          OFFSET 21.2087 0.0000 -0.0000
          CHANNELS 6 Xposition Yposition Zposition Zrotation Xrotation Yrotation
          JOINT b_LeftAnkle
          {
            OFFSET 10.4341 -0.0000 0.0000
            CHANNELS 6 Xposition Yposition Zposition Zrotation Xrotation Yrotation
            JOINT b_LeftToe
            {
              OFFSET 5.6676 6.5983 0.0000
              CHANNELS 6 Xposition Yposition Zposition Zrotation Xrotation Yrotation
              JOINT Bip01_L_Toe0Nub
              {
                OFFSET 8.6279 0.0000 -0.0000
                CHANNELS 6 Xposition Yposition Zposition Zrotation Xrotation Yrotation
                End Site
                {
                  OFFSET 0 0 0
                }
              }
            }
            JOINT b_LeftToe002
            {
              OFFSET 5.6741 -2.3619 -0.5306
              CHANNELS 6 Xposition Yposition Zposition Zrotation Xrotation Yrotation
              End Site
              {
                OFFSET 0 0 0
              }
            }
          }
        }
      }
      JOINT Dog_LeftArmor001
      {
        OFFSET -2.6287 -3.4254 -3.1462
        CHANNELS 6 Xposition Yposition Zposition Zrotation Xrotation Yrotation
        End Site
        {
          OFFSET 0 0 0
        }
      }
    }
    JOINT b_RightLegUpper
    {
      OFFSET 0.0000 -0.0000 -9.9422
      CHANNELS 6 Xposition Yposition Zposition Zrotation Xrotation Yrotation
      JOINT b_RightLeg
      {
        OFFSET 25.9795 0.0000 0.0000
        CHANNELS 6 Xposition Yposition Zposition Zrotation Xrotation Yrotation
        JOINT b_RightLeg1
        {
          OFFSET 21.2087 0.0000 0.0000
          CHANNELS 6 Xposition Yposition Zposition Zrotation Xrotation Yrotation
          JOINT b_RightAnkle
          {
            OFFSET 10.4341 -0.0000 -0.0000
            CHANNELS 6 Xposition Yposition Zposition Zrotation Xrotation Yrotation
            JOINT b_RightToe
            {
              OFFSET 5.6676 6.5983 -0.0000
              CHANNELS 6 Xposition Yposition Zposition Zrotation Xrotation Yrotation
              JOINT Bip01_R_Toe0Nub
              {
                OFFSET 8.6279 -0.0000 0.0000
                CHANNELS 6 Xposition Yposition Zposition Zrotation Xrotation Yrotation
                End Site
                {
                  OFFSET 0 0 0
                }
              }
            }
            JOINT b_RightToe002
            {
              OFFSET 5.6741 -2.3620 0.5304
              CHANNELS 6 Xposition Yposition Zposition Zrotation Xrotation Yrotation
              End Site
              {
                OFFSET 0 0 0
              }
            }
          }
        }
      }
      JOINT Dog_RightArmor001
      {
        OFFSET -2.6288 -3.4254 3.1460
        CHANNELS 6 Xposition Yposition Zposition Zrotation Xrotation Yrotation
        End Site
        {
          OFFSET 0 0 0
        }
      }
    }
  }
}
MOTION
Frames: 4
Frame Time: 0.00833333
-14.1893 58.5666 149.215 83.551 -0.908807 -172.069 53.2821 -6.35e-05 8.19533 -90 -81.2558 -180 0 0 0 -89.9999 -5.43972e-14 -90 10.4409 -1.622 1.78e-05 -3.65139 -3.79432 -3.09514 8.8514 -0.0089989 0 -6.6531 1.84575 4.11494 11.3035 -0.0087814 0 -6.55198 7.99281 2.75917 11.0297 -0.0113029 0 -3.83567 4.81781 -1.97656 14.948 -3.19349 8.6e-06 -41.1782 0.655796 -5.46748 5.49578 -0.0042877 0 1.45525 -1.77886 0.74926 5.52657 -0.0048637 3.55271e-15 3.12818 -9.94043 2.18282 6.10934 1.42109e-14 5.32907e-15 54.5814 3.0961 -0.533553 28.6688 -1.42109e-14 5.32907e-15 1.37935e-32 9.93923e-16 -7.95139e-16 0.607494 2.35752 -7.6e-06 -156.427 -0.000147608 180 10.4683 2.1257 3.51896 -177.142 14.4758 -88.4371 7.34534 0 1.9e-06 -85.1564 -87.3967 1.23684 23.3863 -1.9e-06 1e-06 1.52678 -0.647078 -1.22491 21.504 0 3.55271e-15 -78.4754 -5.65625 1.71763 1.59262 6.21256 -0.0138378 9.12076 -9.88452 -3.71147 23.3657 0 1e-06 4.82771e-33 6.95746e-16 -3.97569e-16 4.20345 4.44573 12.7354 172.377 0.21838 -87.1877 10.4683 2.12572 -3.51895 178.801 0.256991 81.8599 7.34534 0 -1.9e-06 -38.6468 59.8525 -42.6842 23.3863 1.9e-06 0 -9.53133 1.59028e-15 2.93207e-15 21.504 3.8e-06 1e-06 -95.2838 -11.3257 0.124273 1.59262 6.21257 0.0138388 -17.2156 -10.7345 1.07904 23.3657 7.10543e-15 1e-06 180 -6.75868e-15 -5.56597e-15 4.20337 4.4457 -12.7351 172.377 -0.218352 87.1876 -4.78895 3.85983 0.86083 161.907 2.87244 -30.6782 5.0654 4.578e-05 -6.84e-06 -12.5205 -10.0392 -6.28691 4.97505 3.8e-06 -6.7e-06 -3.21154 10.7578 0.0858447 4.7171 -1.145e-05 2.86e-05 5.29669e-31 3.18055e-15 -9.54166e-15 9.71734 -4.2e-05 -5.72e-05 3.18055e-15 1.59028e-15 -0 8.26175 8.01e-05 5.7e-06 -3.18055e-15 -1.59028e-15 -3.18055e-15 9.75986 -6.48e-05 2.86e-05 -1.76556e-31 -3.18055e-15 -3.18055e-15 11.153 2.67e-05 -2.1e-05 -0 0 -6.36111e-15 10.3039 1.14e-05 4.2e-05 -0 0 -0 -11.9878 -1.78568 10.19 170.606 3.62573 1.11034 8.44238 1.53e-05 4.2e-05 3.97569e-16 -3.5525e-16 -2.48481e-17 9.95005 7.6e-06 -2.86e-05 1.98785e-16 -3.55638e-16 -1.2424e-17 9.43418 0 -4.58e-05 1.98785e-16 4.11546e-17 -2.48481e-17 9.71733 6.87e-05 0.0001106 1.98785e-16 -3.56803e-16 -1.2424e-17 8.26175 -2.29e-05 -4.77e-05 1.98785e-16 4.03781e-17 -1.2424e-17 9.75994 2.86e-05 3.05e-05 3.97569e-16 -3.57968e-16 -1.2424e-17 11.1529 -7.25e-05 -5.91e-05 3.97569e-16 3.88251e-17 -0 10.3039 -7.6e-06 0 3.97569e-16 -3.59521e-16 -1.2424e-17 -1.14e-05 1.53e-05 9.94222 -106.123 16.6047 -172.867 25.9795 1e-06 1.42109e-14 -35.6899 -0.336402 -1.16306 21.2087 1.9e-06 -1e-06 49.9042 8.72314 -8.72383 10.4341 -1.9e-06 1e-06 -15.0679 -2.85201 4.33451 5.66763 6.59832 0 91.0274 12.3676 -4.69493 8.62785 -1.77636e-15 7.10543e-15 -180 -2.79392e-13 7.15625e-15 5.67414 -2.36194 -0.530567 -75.8081 4.38708 5.33411 -2.62874 -3.42539 -3.14618 29.7499 1.82752 90.2264 1.53e-05 -1.53e-05 -9.94222 -110.597 -24.0646 174.605 25.9795 0 1e-06 -30.2758 0.146993 2.59321 21.2087 0 1.9e-06 51.1261 -24.2346 20.7721 10.4341 -1.9e-06 -1e-06 -15.3773 14.717 -5.08251 5.66763 6.59831 1.77636e-15 86.1764 -1.0952 0.654337 8.62785 0 0 -3.18055e-15 1.59028e-15 -0 5.67412 -2.36198 0.530355 -75.808 -4.38692 -5.33418 -2.62878 -3.42545 3.14601 29.7498 -1.82753 -90.2266
-14.1893 58.5666 149.215 83.551 -0.908807 -172.069 53.2821 -6.35e-05 8.19533 -90 -81.2558 -180 0 0 0 -89.9999 -5.43972e-14 -90 10.4409 -1.622 1.78e-05 -3.65139 -3.79432 -3.09514 8.8514 -0.0089989 0 -6.6531 1.84575 4.11494 11.3035 -0.0087814 0 -6.55198 7.99281 2.75917 11.0297 -0.0113029 0 -3.83567 4.81781 -1.97656 14.948 -3.19349 8.6e-06 -41.1782 0.655796 -5.46748 5.49578 -0.0042877 0 1.45525 -1.77886 0.74926 5.52657 -0.0048637 3.55271e-15 3.12818 -9.94043 2.18282 6.10934 1.42109e-14 5.32907e-15 54.5814 3.0961 -0.533553 28.6688 -1.42109e-14 5.32907e-15 1.37935e-32 9.93923e-16 -7.95139e-16 0.607494 2.35752 -7.6e-06 -156.427 -0.000147608 180 10.4683 2.1257 3.51896 -177.142 14.4758 -88.4371 7.34534 0 1.9e-06 -85.1564 -87.3967 1.23684 23.3863 -1.9e-06 1e-06 1.52678 -0.647078 -1.22491 21.504 0 3.55271e-15 -78.4754 -5.65625 1.71763 1.59262 6.21256 -0.0138378 9.12076 -9.88452 -3.71147 23.3657 0 1e-06 4.82771e-33 6.95746e-16 -3.97569e-16 4.20345 4.44573 12.7354 172.377 0.21838 -87.1877 10.4683 2.12572 -3.51895 178.801 0.256991 81.8599 7.34534 0 -1.9e-06 -38.6468 59.8525 -42.6842 23.3863 1.9e-06 0 -9.53133 1.59028e-15 2.93207e-15 21.504 3.8e-06 1e-06 -95.2838 -11.3257 0.124273 1.59262 6.21257 0.0138388 -17.2156 -10.7345 1.07904 23.3657 7.10543e-15 1e-06 180 -6.75868e-15 -5.56597e-15 4.20337 4.4457 -12.7351 172.377 -0.218352 87.1876 -4.78895 3.85983 0.86083 161.907 2.87244 -30.6782 5.0654 4.578e-05 -6.84e-06 -12.5205 -10.0392 -6.28691 4.97505 3.8e-06 -6.7e-06 -3.21154 10.7578 0.0858447 4.7171 -1.145e-05 2.86e-05 5.29669e-31 3.18055e-15 -9.54166e-15 9.71734 -4.2e-05 -5.72e-05 3.18055e-15 1.59028e-15 -0 8.26175 8.01e-05 5.7e-06 -3.18055e-15 -1.59028e-15 -3.18055e-15 9.75986 -6.48e-05 2.86e-05 -1.76556e-31 -3.18055e-15 -3.18055e-15 11.153 2.67e-05 -2.1e-05 -0 0 -6.36111e-15 10.3039 1.14e-05 4.2e-05 -0 0 -0 -11.9878 -1.78568 10.19 170.606 3.62573 1.11034 8.44238 1.53e-05 4.2e-05 3.97569e-16 -3.5525e-16 -2.48481e-17 9.95005 7.6e-06 -2.86e-05 1.98785e-16 -3.55638e-16 -1.2424e-17 9.43418 0 -4.58e-05 1.98785e-16 4.11546e-17 -2.48481e-17 9.71733 6.87e-05 0.0001106 1.98785e-16 -3.56803e-16 -1.2424e-17 8.26175 -2.29e-05 -4.77e-05 1.98785e-16 4.03781e-17 -1.2424e-17 9.75994 2.86e-05 3.05e-05 3.97569e-16 -3.57968e-16 -1.2424e-17 11.1529 -7.25e-05 -5.91e-05 3.97569e-16 3.88251e-17 -0 10.3039 -7.6e-06 0 3.97569e-16 -3.59521e-16 -1.2424e-17 -1.14e-05 1.53e-05 9.94222 -106.123 16.6047 -172.867 25.9795 1e-06 1.42109e-14 -35.6899 -0.336402 -1.16306 21.2087 1.9e-06 -1e-06 49.9042 8.72314 -8.72383 10.4341 -1.9e-06 1e-06 -15.0679 -2.85201 4.33451 5.66763 6.59832 0 91.0274 12.3676 -4.69493 8.62785 -1.77636e-15 7.10543e-15 -180 -2.79392e-13 7.15625e-15 5.67414 -2.36194 -0.530567 -75.8081 4.38708 5.33411 -2.62874 -3.42539 -3.14618 29.7499 1.82752 90.2264 1.53e-05 -1.53e-05 -9.94222 -110.597 -24.0646 174.605 25.9795 0 1e-06 -30.2758 0.146993 2.59321 21.2087 0 1.9e-06 51.1261 -24.2346 20.7721 10.4341 -1.9e-06 -1e-06 -15.3773 14.717 -5.08251 5.66763 6.59831 1.77636e-15 86.1764 -1.0952 0.654337 8.62785 0 0 -3.18055e-15 1.59028e-15 -0 5.67412 -2.36198 0.530355 -75.808 -4.38692 -5.33418 -2.62878 -3.42545 3.14601 29.7498 -1.82753 -90.2266
-16.5191 59.5854 148.718 91.8636 6.94348 -165.799 53.2821 -6.35e-05 8.19533 -90 -81.2558 -180 0 0 0 -89.9999 -4.1675e-14 -90 10.4409 -1.622 1.78e-05 -3.61221 -3.63363 -2.77761 8.8514 -0.0089989 0 -6.69157 1.85652 4.26621 11.3035 -0.0087814 -3.55271e-15 -6.60188 7.97519 2.83469 11.0297 -0.0113029 -3.55271e-15 -3.85764 4.81655 -1.95148 14.948 -3.19349 8.6e-06 -41.1166 1.20484 -5.25172 5.49578 -0.0042877 0 1.2685 -2.79829 0.64797 5.52657 -0.0048637 0 3.06207 -9.46448 2.38967 6.10934 0 3.55271e-15 54.4164 3.48369 -0.300656 28.6688 0 0 -1.59028e-15 -3.72721e-16 1.98785e-16 0.607494 2.35752 -7.6e-06 -156.427 -0.000147608 180 10.4683 2.1257 3.51896 -177.147 14.4974 -88.5683 7.34534 1.42109e-14 1.9e-06 -86.4898 -87.29 -0.0869047 23.3863 -1.9e-06 1e-06 1.48414 -0.646166 -1.22539 21.504 0 -7.10543e-15 -78.7488 -5.66434 1.69067 1.59262 6.21256 -0.0138378 8.86252 -10.5984 -3.7836 23.3657 3.55271e-15 1e-06 3.18055e-15 3.57812e-15 -3.18055e-15 4.20345 4.44573 12.7354 172.377 0.21838 -87.1877 10.4683 2.12572 -3.51895 178.769 0.294793 81.8894 7.34534 -7.10543e-15 -1.9e-06 -38.6941 59.8235 -42.618 23.3863 1.9e-06 7.10543e-15 -9.59997 0 -9.93923e-16 21.504 3.8e-06 1e-06 -95.3931 -11.2885 0.28128 1.59262 6.21257 0.0138388 -20.1545 -12.2007 1.16233 23.3657 -7.10543e-15 1e-06 180 4.37326e-14 -4.77083e-15 4.20337 4.4457 -12.7351 172.377 -0.218352 87.1876 -4.78895 3.85983 0.86083 161.79 2.53138 -29.8342 5.0654 4.578e-05 -6.84e-06 -11.683 -10.8364 -3.87313 4.97505 3.8e-06 -6.7e-06 -3.08593 10.5103 -0.53016 4.7171 -1.145e-05 2.86e-05 1.76556e-31 1.59028e-15 -6.36111e-15 9.71734 -4.2e-05 -5.72e-05 -0 1.59028e-15 -0 8.26175 8.01e-05 5.7e-06 -1.76556e-31 3.18055e-15 3.18055e-15 9.75986 -6.48e-05 2.86e-05 -1.59028e-15 4.77083e-15 -0 11.153 2.67e-05 -2.1e-05 -0 1.59028e-15 -0 10.3039 1.14e-05 4.2e-05 1.59028e-15 0 -3.18055e-15 -11.9878 -1.78568 10.19 170.606 3.62573 1.11034 8.44238 1.53e-05 4.2e-05 -6.06912e-32 2.18663e-15 1.59028e-15 9.95005 7.6e-06 -2.86e-05 7.95139e-16 -1.98785e-15 -1.59028e-15 9.43418 7.10543e-15 -4.58e-05 -3.86217e-32 1.39149e-15 1.59028e-15 9.71733 6.87e-05 0.0001106 1.59028e-15 -1.2921e-15 -1.59028e-15 8.26175 -2.29e-05 -4.77e-05 7.95139e-16 3.97569e-16 -0 9.75994 2.86e-05 3.05e-05 -0 1.98785e-16 -0 11.1529 -7.25e-05 -5.91e-05 7.95139e-16 -5.96354e-16 -1.59028e-15 10.3039 -7.6e-06 0 7.95139e-16 5.96354e-16 -0 -1.14e-05 1.53e-05 9.94222 -106.336 16.4119 -172.647 25.9795 1e-06 0 -35.8413 -0.333328 -1.16394 21.2087 1.9e-06 -1e-06 50.1055 9.03387 -8.95131 10.4341 -1.9e-06 1e-06 -15.1055 -2.85486 4.33263 5.66763 6.59832 0 91.0717 12.5853 -5.14859 8.62785 0 0 -180 1.89839e-13 3.18055e-15 5.67414 -2.36194 -0.530567 -75.8081 4.38708 5.33411 -2.62874 -3.42539 -3.14618 29.7499 1.82752 90.2264 1.53e-05 -1.53e-05 -9.94222 -110.397 -24.2232 174.772 25.9795 2.84217e-14 1e-06 -30.1253 0.153809 2.59282 21.2087 0 1.9e-06 51.3766 -24.5673 20.8068 10.4341 -1.9e-06 -1e-06 -15.4924 15.3514 -4.91466 5.66763 6.59831 0 86.0784 -1.43324 0.623753 8.62785 -8.88178e-16 0 -7.95139e-16 -3.97569e-16 -0 5.67412 -2.36198 0.530356 -75.808 -4.38692 -5.33418 -2.62878 -3.42545 3.14601 29.7498 -1.82753 -90.2266
-16.4711 59.5749 148.718 91.861 7.29023 -165.826 53.2821 -6.35e-05 8.19533 -90 -81.2558 -180 0 0 0 -89.9999 -5.43972e-14 -90 10.4409 -1.622 1.78e-05 -3.56225 -3.50651 -2.50854 8.8514 -0.0089989 -7.10543e-15 -6.69891 1.85268 4.37681 11.3035 -0.0087814 0 -6.61628 7.943 2.85519 11.0297 -0.0113029 -3.55271e-15 -3.83925 4.80261 -1.96913 14.948 -3.19349 8.6e-06 -41.0855 1.17975 -5.35322 5.49578 -0.0042877 -7.10543e-15 1.24909 -2.77323 0.672089 5.52657 -0.0048637 0 3.0603 -9.45506 2.38853 6.10934 1.42109e-14 0 54.4153 3.48591 -0.298843 28.6688 0 0 1.59028e-15 -5.46658e-16 9.93923e-17 0.607494 2.35752 -7.6e-06 -156.427 -0.000147608 180 10.4683 2.1257 3.51896 -177.133 14.5063 -88.5846 7.34534 0 1.9e-06 -86.785 -87.3457 -0.378695 23.3863 -1.9e-06 1e-06 1.50158 -0.646539 -1.2252 21.504 0 -7.10543e-15 -78.7879 -5.66549 1.68681 1.59262 6.21256 -0.0138378 8.83651 -10.5915 -3.79682 23.3657 0 1e-06 -0 5.1684e-15 -0 4.20345 4.44573 12.7354 172.377 0.21838 -87.1877 10.4683 2.12572 -3.51895 178.806 0.338263 81.9538 7.34534 7.10543e-15 -1.9e-06 -38.7298 59.8476 -42.6167 23.3863 1.9e-06 0 -9.62882 -3.18055e-15 -1.98785e-16 21.504 3.8e-06 1e-06 -95.393 -11.2791 0.283758 1.59262 6.21257 0.0138388 -20.1751 -12.2289 1.1608 23.3657 -7.10543e-15 1e-06 180 -1.59028e-15 -1.11319e-14 4.20337 4.4457 -12.7351 172.377 -0.218352 87.1876 -4.78895 3.85983 0.86083 161.733 2.24329 -28.9908 5.0654 4.578e-05 -6.84e-06 -10.6861 -13.5606 -1.52357 4.97505 3.8e-06 -6.7e-06 -3.19887 10.517 -0.556569 4.7171 -1.145e-05 2.86e-05 -0 0 -0 9.71734 -4.2e-05 -5.72e-05 3.18055e-15 0 3.18055e-15 8.26175 8.01e-05 5.7e-06 -0 -2.38542e-15 -0 9.75986 -6.48e-05 2.86e-05 -0 -7.95139e-16 -0 11.153 2.67e-05 -2.1e-05 3.18055e-15 -2.38542e-15 3.18055e-15 10.3039 1.14e-05 4.2e-05 -9.54166e-15 2.38542e-15 -6.36111e-15 -11.9878 -1.78568 10.19 170.606 3.62573 1.11034 8.44238 1.53e-05 4.2e-05 7.95139e-16 -7.95139e-16 -1.59028e-15 9.95005 7.6e-06 -2.86e-05 -0 -4.96962e-16 -0 9.43418 0 -4.58e-05 7.95139e-16 4.96962e-16 -0 9.71733 6.87e-05 0.0001106 -7.95139e-16 2.98177e-16 -0 8.26175 -2.29e-05 -4.77e-05 -2.38542e-15 1.2921e-15 -1.59028e-15 9.75994 2.86e-05 3.05e-05 -7.95139e-16 4.96962e-16 -0 11.1529 -7.25e-05 -5.91e-05 -7.95139e-16 1.39149e-15 -0 10.3039 -7.6e-06 0 -1.37935e-32 4.96962e-16 1.59028e-15 -1.14e-05 1.53e-05 9.94222 -106.514 16.2731 -172.474 25.9795 1e-06 1.42109e-14 -36.0407 -0.329274 -1.16509 21.2087 1.9e-06 -1e-06 50.1929 9.27379 -9.21299 10.4341 -1.9e-06 1e-06 -15.1 -2.85444 4.33291 5.66763 6.59832 0 91.0927 12.5987 -5.14485 8.62785 0 -7.10543e-15 -180 -2.781e-13 6.36111e-15 5.67414 -2.36194 -0.530567 -75.8081 4.38708 5.33411 -2.62874 -3.42539 -3.14618 29.7499 1.82752 90.2264 1.53e-05 -1.53e-05 -9.94222 -110.209 -24.2526 174.923 25.9795 0 1e-06 -30.0379 0.157768 2.59258 21.2087 2.84217e-14 1.9e-06 51.3476 -24.2136 20.4886 10.4341 -1.9e-06 -1e-06 -15.5386 15.2339 -4.90368 5.66763 6.59831 -1.77636e-15 86.0121 -1.39979 0.604142 8.62785 0 1.77636e-15 3.62078e-33 5.2181e-16 -3.97569e-16 5.67412 -2.36198 0.530355 -75.808 -4.38692 -5.33418 -2.62878 -3.42545 3.14601 29.7498 -1.82753 -90.2266
